<svg width="32" height="32" viewBox="0 0 32 32" fill="none" xmlns="http://www.w3.org/2000/svg">
    <circle opacity="0.2" cx="16" cy="16" r="16" fill="#FB6514"/>
    <circle opacity="0.6" cx="16" cy="16" r="13" fill="#FB6514"/>
    <path fill-rule="evenodd" clip-rule="evenodd" d="M16.8015 14.2553C16.2905 14.4788 15.7095 14.4788 15.1986 14.2553L9.08346 11.5806C8.67856 11.4035 8.68565 10.8267 9.09479 10.6597L15.2439 8.14845C15.7285 7.95052 16.2715 7.95052 16.7562 8.14845L22.9052 10.6597C23.3144 10.8267 23.3215 11.4035 22.9166 11.5806L16.8015 14.2553ZM8 12.9622C8 12.5995 8.37408 12.3575 8.70492 12.5062L15.2343 15.4399C15.4139 15.5206 15.5294 15.6992 15.5294 15.896V23.4991C15.5294 23.8618 15.1553 24.1038 14.8245 23.9552L8.29508 21.0214C8.11551 20.9407 8 20.7622 8 20.5653V12.9622ZM16.4707 15.896C16.4707 15.6992 16.5862 15.5206 16.7658 15.4399L23.2952 12.5062C23.626 12.3575 24.0001 12.5995 24.0001 12.9622V20.5653C24.0001 20.7622 23.8846 20.9407 23.7051 21.0214L17.1756 23.9552C16.8448 24.1038 16.4707 23.8618 16.4707 23.4991V15.896Z" fill="white"/>
</svg>
