<svg width="32" height="32" viewBox="0 0 32 32" fill="none" xmlns="http://www.w3.org/2000/svg">
<circle opacity="0.2" cx="16" cy="16" r="16" fill="#999"/>
<circle opacity="0.6" cx="16" cy="16" r="13" fill="#999"/>
<path d="M7 11C7 10.4477 7.42415 10 7.94737 10H16.4737C16.9969 10 17.4211 10.4477 17.4211 11V19.5C17.4211 20.0523 16.9969 20.5 16.4737 20.5H13.1579C13.1579 19.3954 12.3096 18.5 11.2632 18.5C10.2167 18.5 9.36842 19.3954 9.36842 20.5H7.94737C7.42415 20.5 7 20.0523 7 19.5V11Z" fill="white"/>
<path fill-rule="evenodd" clip-rule="evenodd" d="M19.3158 12.5C18.7926 12.5 18.3684 12.9477 18.3684 13.5V19.5C18.3684 20.0523 18.7926 20.5 19.3158 20.5H19.7895C19.7895 19.3954 20.6378 18.5 21.6842 18.5C22.7306 18.5 23.5789 19.3954 23.5789 20.5H24.0526C24.5758 20.5 25 20.0523 25 19.5V16.8757C25 16.6335 24.9167 16.3995 24.7656 16.2172L21.9673 12.8415C21.7874 12.6245 21.5275 12.5 21.2543 12.5H19.3158ZM19.7895 13.5C19.5279 13.5 19.3158 13.7239 19.3158 14V16.5C19.3158 16.7761 19.5279 17 19.7895 17H22.6316C22.8932 17 23.1053 16.7761 23.1053 16.5V16.1302C23.1053 15.8853 23.0201 15.6489 22.866 15.4658L21.4932 13.8356C21.3134 13.6221 21.0557 13.5 20.7851 13.5H19.7895Z" fill="white"/>
<path d="M23.1053 20.5C23.1053 21.3284 22.469 22 21.6842 22C20.8994 22 20.2632 21.3284 20.2632 20.5C20.2632 19.6716 20.8994 19 21.6842 19C22.469 19 23.1053 19.6716 23.1053 20.5Z" fill="white"/>
<path d="M11.2632 22C12.048 22 12.6842 21.3284 12.6842 20.5C12.6842 19.6716 12.048 19 11.2632 19C10.4783 19 9.84211 19.6716 9.84211 20.5C9.84211 21.3284 10.4783 22 11.2632 22Z" fill="white"/>
</svg>
