<svg width="16" height="19" viewBox="0 0 16 19" fill="none" xmlns="http://www.w3.org/2000/svg">
<path fill-rule="evenodd" clip-rule="evenodd" d="M12.8333 7C12.8333 10.2217 10.2217 12.8333 7 12.8333C3.77834 12.8333 1.16667 10.2217 1.16667 7C1.16667 3.77834 3.77834 1.16667 7 1.16667C10.2217 1.16667 12.8333 3.77834 12.8333 7ZM10.7488 12.9126C9.66507 13.6012 8.37911 14 7 14C3.13401 14 0 10.866 0 7C0 3.13401 3.13401 0 7 0C10.866 0 14 3.13401 14 7C14 9.12769 13.0507 11.0337 11.5526 12.3175L15.2517 17.2015C15.4184 17.4217 15.3751 17.7353 15.155 17.902C14.9349 18.0687 14.6213 18.0254 14.4545 17.8053L10.7488 12.9126Z" fill="#1A1A1A"/>
</svg>
