<svg width="127" height="36" viewBox="0 0 127 36" fill="none" xmlns="http://www.w3.org/2000/svg">
    <path d="M103.866 21.9892V14.9604C103.866 13.0069 102.919 12.02 101.147 12.02C99.737 12.02 98.428 12.9464 97.8842 13.8326C97.6022 12.8256 96.7564 12.02 95.266 12.02C93.8361 12.02 92.527 13.0471 92.1242 13.6715V12.2617H90.6138V21.9892H92.1242V14.8799C92.6479 14.0944 93.6951 13.3694 94.682 13.3694C95.9508 13.3694 96.4744 14.1548 96.4744 15.3833V21.9892H97.9849V14.8597C98.4884 14.0944 99.5558 13.3694 100.563 13.3694C101.811 13.3694 102.355 14.1548 102.355 15.3833V21.9892H103.866Z" fill="#343938"/>
    <path d="M114.472 21.9892V15.3028C114.472 12.9464 112.76 12.02 110.705 12.02C109.114 12.02 107.866 12.5437 106.818 13.6312L107.523 14.6785C108.389 13.752 109.336 13.3291 110.504 13.3291C111.914 13.3291 112.961 14.0743 112.961 15.3833V17.1355C112.176 16.2292 111.068 15.8063 109.739 15.8063C108.087 15.8063 106.335 16.8334 106.335 19.0085C106.335 21.1232 108.087 22.2308 109.739 22.2308C111.048 22.2308 112.156 21.7676 112.961 20.8815V21.9892H114.472ZM110.283 21.1433C108.873 21.1433 107.886 20.2571 107.886 19.0286C107.886 17.78 108.873 16.8938 110.283 16.8938C111.35 16.8938 112.377 17.2966 112.961 18.1022V19.9349C112.377 20.7405 111.35 21.1433 110.283 21.1433Z" fill="#343938"/>
    <path d="M122.293 22.2308C124.85 22.2308 126.623 20.2571 126.623 17.1154C126.623 13.9534 124.85 12.02 122.293 12.02C120.923 12.02 119.715 12.7249 119.01 13.7118V12.2617H117.499V25.6949H119.01V20.519C119.795 21.6065 120.963 22.2308 122.293 22.2308ZM121.91 20.8815C120.722 20.8815 119.534 20.1564 119.01 19.3106V14.9201C119.534 14.0743 120.722 13.3694 121.91 13.3694C123.864 13.3694 125.032 14.9604 125.032 17.1154C125.032 19.2703 123.864 20.8815 121.91 20.8815Z" fill="#343938"/>
    <path d="M42.3169 22.231C44.4114 22.231 45.7205 21.2844 46.3045 20.4385L44.2906 18.5454C43.9079 19.0892 43.2836 19.492 42.4579 19.492C41.1689 19.492 40.1821 18.5857 40.1821 17.1155C40.1821 15.6453 41.1689 14.7591 42.4579 14.7591C43.2836 14.7591 43.9079 15.1216 44.2906 15.6856L46.3045 13.8126C45.7205 12.9466 44.4114 12.0201 42.3169 12.0201C39.2758 12.0201 37 14.0744 37 17.1155C37 20.1767 39.2758 22.231 42.3169 22.231Z" fill="#343938"/>
    <path d="M56.5556 21.9893V15.9071C56.5556 12.8861 54.3604 12.0201 52.0242 12.0201C50.5339 12.0201 48.8623 12.4632 47.6136 13.5306L48.7213 15.4842C49.5067 14.8196 50.5137 14.457 51.4804 14.457C52.7291 14.457 53.4541 15.021 53.4541 15.8668V17.0349C52.8701 16.3099 51.7221 15.9071 50.4332 15.9071C48.9428 15.9071 47.09 16.6724 47.09 19.0287C47.09 21.224 48.9428 22.231 50.4332 22.231C51.6818 22.231 52.8499 21.7476 53.4541 21.0226V21.9893H56.5556ZM51.7221 20.1968C50.8964 20.1968 50.1713 19.8343 50.1713 19.069C50.1713 18.3037 50.8964 17.9412 51.7221 17.9412C52.4068 17.9412 53.1319 18.1829 53.4541 18.626V19.492C53.1319 19.9552 52.4068 20.1968 51.7221 20.1968Z" fill="#343938"/>
    <path d="M61.9084 21.9893V15.7863C62.3112 15.2425 63.3786 14.9001 64.1842 14.9001C64.5064 14.9001 64.7682 14.9404 64.9495 14.9807V12C63.7814 12 62.5528 12.6646 61.9084 13.4501V12.2618H58.8069V21.9893H61.9084Z" fill="#343938"/>
    <path d="M70.4073 25.9367C72.8241 25.9367 75.9659 25.0908 75.9659 21.1233V12.2618H72.8845V13.4098C72.099 12.4431 71.0921 12.0201 70.0045 12.0201C67.5676 12.0201 65.7148 13.7119 65.7148 16.9141C65.7148 20.1968 67.628 21.8282 70.0045 21.8282C71.1122 21.8282 72.0789 21.3649 72.8845 20.4184V21.1636C72.8845 22.9761 71.4344 23.3991 70.4073 23.3991C69.2795 23.3991 68.1919 23.0768 67.4468 22.2712L66.0974 24.4866C67.3461 25.5137 68.7357 25.9367 70.4073 25.9367ZM71.0316 19.0892C69.8031 19.0892 68.8968 18.344 68.8968 16.9141C68.8968 15.5043 69.8031 14.7591 71.0316 14.7591C71.6761 14.7591 72.5018 15.1015 72.8845 15.6251V18.2232C72.5018 18.7468 71.6761 19.0892 71.0316 19.0892Z" fill="#343938"/>
    <path d="M82.8908 22.231C86.2339 22.231 88.2076 19.8545 88.2076 17.1155C88.2076 14.3765 86.2339 12.0201 82.8908 12.0201C79.5879 12.0201 77.594 14.3765 77.594 17.1155C77.594 19.8545 79.5879 22.231 82.8908 22.231ZM82.8908 19.492C81.5414 19.492 80.7962 18.4246 80.7962 17.1155C80.7962 15.8265 81.5414 14.7591 82.8908 14.7591C84.2603 14.7591 85.0256 15.8265 85.0256 17.1155C85.0256 18.4246 84.2603 19.492 82.8908 19.492Z" fill="#343938"/>
    <path d="M24.8702 8.16899C25.5346 7.77037 25.5129 6.80028 24.8313 6.43182L15.2774 1.26667C14.971 1.10102 14.6005 1.10673 14.2993 1.28175L0.497529 9.30285C0.189521 9.48185 0 9.8112 0 10.1674V25.8024C0 26.158 0.188911 26.4869 0.496129 26.6661L14.1381 34.6239C14.4552 34.8089 14.8483 34.8053 15.1619 34.6144L21.4896 30.7627C21.7877 30.5812 21.9697 30.2575 21.9697 29.9085V27.9217C21.9697 27.156 21.1443 26.6744 20.4776 27.0512L15.1377 30.0694C14.8327 30.2418 14.4596 30.242 14.1544 30.0698L4.31676 24.5204C4.00248 24.3431 3.80808 24.0102 3.80808 23.6494V12.3092C3.80808 11.952 3.99862 11.6219 4.30794 11.4433L14.2891 5.67856C14.5993 5.4994 14.9816 5.49985 15.2914 5.67973L21.757 9.43421C22.0719 9.61708 22.4614 9.61429 22.7737 9.42693L24.8702 8.16899Z" fill="#F38362"/>
    <path d="M24.8702 8.16899C25.5346 7.77037 25.5129 6.80028 24.8313 6.43182L15.2774 1.26667C14.971 1.10102 14.6005 1.10673 14.2993 1.28175L1.5128 8.71281C0.843863 9.10157 0.850875 10.0701 1.52537 10.4492L3.3114 11.4528C3.61929 11.6259 3.99561 11.6236 4.30143 11.447L14.2891 5.67856C14.5993 5.4994 14.9816 5.49985 15.2914 5.67973L21.757 9.43421C22.0719 9.61708 22.4614 9.61429 22.7737 9.42693L24.8702 8.16899Z" fill="#EF5D33"/>
    <path d="M28.9995 10.8875C28.9995 10.1157 28.1623 9.63486 27.4956 10.0237L14.8655 17.3914C14.5512 17.5747 14.1622 17.5728 13.8497 17.3866L8.83462 14.3984C8.16805 14.0013 7.32275 14.4816 7.32275 15.2575L7.32275 17.5234C7.32275 17.8761 7.50854 18.2027 7.81169 18.383L13.8429 21.969C14.1567 22.1556 14.5474 22.1563 14.8619 21.9708L23.6834 16.7683C24.3501 16.3752 25.1914 16.8558 25.1914 17.6297V26.4525C25.1914 27.215 26.0105 27.697 26.6771 27.3267L28.4852 26.3222C28.8026 26.1458 28.9995 25.8112 28.9995 25.448V10.8875Z" fill="#2E6658"/>
    <path d="M28.9998 10.8875C28.9998 10.1157 28.1626 9.63486 27.4959 10.0237L14.8521 17.3993C14.5451 17.5784 14.3563 17.9068 14.3559 18.2621L14.3537 20.5189C14.353 21.2933 15.1947 21.7746 15.8617 21.3813L23.6837 16.7683C24.3504 16.3752 25.1917 16.8558 25.1917 17.6297V26.4525C25.1917 27.215 26.0108 27.697 26.6774 27.3267L28.4854 26.3222C28.8029 26.1458 28.9998 25.8112 28.9998 25.448V10.8875Z" fill="#2D6355"/>
    <path d="M28.9998 10.8875C28.9998 10.1157 28.1626 9.63486 27.4959 10.0237L14.8521 17.3993C14.5451 17.5784 14.3563 17.9068 14.3559 18.2621L14.3537 20.5189C14.353 21.2933 15.1947 21.7746 15.8617 21.3813L23.6837 16.7683C24.3504 16.3752 25.1917 16.8558 25.1917 17.6297V26.4525C25.1917 27.215 26.0108 27.697 26.6774 27.3267L28.4854 26.3222C28.8029 26.1458 28.9998 25.8112 28.9998 25.448V10.8875Z" fill="black" fill-opacity="0.2"/>
</svg>
