<svg width="41" height="48" viewBox="0 0 41 48" fill="none" xmlns="http://www.w3.org/2000/svg">
    <path d="M32.9433 11.4662C34.8619 10.315 34.7991 7.51343 32.8309 6.44934L22.3813 0.800002C21.4622 0.303062 20.3506 0.3202 19.4472 0.84524L1.49259 11.2798C0.568564 11.8168 0 12.8048 0 13.8736V34.1541C0 35.2211 0.566733 36.2078 1.48839 36.7455L19.1717 47.0607C20.1231 47.6157 21.3022 47.6047 22.2431 47.032L29.7893 42.4387C30.5786 41.9582 31.0604 41.1009 31.0604 40.1768C31.0604 38.1492 28.8747 36.8739 27.1095 37.8716L22.1813 40.6571C21.266 41.1744 20.1468 41.1749 19.2311 40.6584L6.90984 33.7079C5.967 33.176 5.38381 32.1775 5.38381 31.095V16.9044C5.38381 15.8328 5.95543 14.8425 6.8834 14.3066L19.4062 7.07391C20.3368 6.53644 21.4838 6.53778 22.4131 7.07743L30.0072 11.4872C30.9167 12.0153 32.0414 12.0073 32.9433 11.4662Z" fill="#FB6514"/>
    <path d="M40.9998 16.7406C40.9998 14.4252 38.4882 12.9826 36.4882 14.1492L21.8251 22.7027C20.8824 23.2526 19.7154 23.2472 18.7779 22.6886L14.5708 20.1818C12.7114 19.0739 10.3535 20.4137 10.3535 22.5781C10.3535 23.5619 10.8718 24.473 11.7174 24.9758L18.7642 29.1657C19.7058 29.7255 20.8777 29.7276 21.8213 29.1711L34.108 21.9251C34.7746 21.532 35.616 22.0126 35.616 22.7865V33.8123C35.616 35.8649 37.821 37.1623 39.6152 36.1655C40.4698 35.6907 40.9998 34.7899 40.9998 33.8123V16.7406Z" fill="#141466"/>
</svg>
